<svg width="124" height="189" viewBox="0 0 124 189" fill="none" xmlns="http://www.w3.org/2000/svg">
<path d="M107.792 52.0466C107.698 48.9087 106.801 45.8474 105.186 43.1555C103.57 40.4636 101.292 38.2311 98.567 36.6716C97.9137 32.2074 95.6732 28.1283 92.2563 25.182C88.8393 22.2358 84.475 20.6198 79.9632 20.6304C78.2336 20.6353 76.5116 20.8592 74.8382 21.2966C71.3106 17.9287 66.621 16.0496 61.7439 16.0496C56.8667 16.0496 52.1771 17.9287 48.6495 21.2966C46.9761 20.8592 45.2541 20.6353 43.5245 20.6304C38.9952 20.595 34.606 22.1998 31.1677 25.1483C27.7293 28.0968 25.474 32.1899 24.8182 36.6716C22.0841 38.2247 19.7951 40.4544 18.1707 43.1467C16.5463 45.8391 15.6411 48.9037 15.542 52.0466C14.1828 52.0466 12.8792 52.5866 11.9181 53.5477C10.9569 54.5088 10.417 55.8124 10.417 57.1716C10.4172 66.1676 12.7854 75.0051 17.2835 82.7959C21.7816 90.5866 28.2512 97.0561 36.042 101.554V108.422C36.042 109.781 36.5819 111.084 37.5431 112.046C38.5042 113.007 39.8078 113.547 41.167 113.547H82.167C83.5262 113.547 84.8298 113.007 85.7909 112.046C86.752 111.084 87.292 109.781 87.292 108.422V101.554C95.0828 97.0561 101.552 90.5866 106.05 82.7959C110.549 75.0051 112.917 66.1676 112.917 57.1716C112.917 55.8124 112.377 54.5088 111.416 53.5477C110.455 52.5866 109.151 52.0466 107.792 52.0466ZM25.792 52.0466C25.9222 50.4274 26.5333 48.8841 27.547 47.6148C28.5606 46.3454 29.9305 45.408 31.4807 44.9229L35.7345 43.5904L34.9145 39.2341C34.9279 38.1303 35.1585 37.04 35.5933 36.0254C36.0281 35.0107 36.6585 34.0917 37.4486 33.3207C38.2386 32.5497 39.1727 31.9419 40.1976 31.532C41.2226 31.1221 42.3182 30.9181 43.422 30.9316C44.9016 30.9272 46.3605 31.2787 47.6757 31.9566L51.827 34.2629L54.3895 30.3166C55.1909 29.1222 56.274 28.1433 57.5432 27.4665C58.8123 26.7897 60.2286 26.4356 61.667 26.4356C63.1054 26.4356 64.5216 26.7897 65.7908 27.4665C67.06 28.1433 68.1431 29.1222 68.9445 30.3166L71.507 34.2629L75.6582 31.9566C76.9734 31.2787 78.4324 30.9272 79.912 30.9316C82.1287 30.9037 84.2677 31.7474 85.8685 33.2811C87.4693 34.8148 88.4037 36.9157 88.4707 39.1316L87.6507 43.4879L91.8532 44.9229C93.4035 45.408 94.7734 46.3454 95.787 47.6148C96.8007 48.8841 97.4118 50.4274 97.542 52.0466H25.792Z" fill="white"/>
<path d="M24.9166 151.217C25.0846 151.145 25.2046 151.097 25.2766 151.073C25.3726 151.049 25.4446 151.037 25.4926 151.037C25.6846 151.037 25.9006 151.121 26.1406 151.289C26.4046 151.481 26.5486 151.637 26.5726 151.757C26.6686 151.973 26.7286 153.041 26.7526 154.961C26.7766 155.609 26.7886 156.581 26.7886 157.877C26.7886 159.125 26.7766 160.061 26.7526 160.685L26.7166 162.917L26.2846 163.421L25.8166 163.889L20.7766 163.853C18.4966 163.853 17.0206 163.829 16.3486 163.781C15.7966 163.733 15.4126 163.649 15.1966 163.529C14.8846 163.337 14.6686 163.085 14.5486 162.773C14.5246 162.701 14.5126 162.317 14.5126 161.621C14.5126 160.301 14.5366 159.101 14.5846 158.021C14.7046 154.973 14.8006 153.281 14.8726 152.945C14.9686 152.129 15.3646 151.721 16.0606 151.721C16.6846 151.721 17.0566 152.033 17.1766 152.657C17.2486 153.137 17.2966 153.725 17.3206 154.421C17.3686 155.309 17.4406 155.813 17.5366 155.933C17.6086 156.053 18.3766 156.113 19.8406 156.113C22.5526 156.113 23.9566 156.029 24.0526 155.861C24.1246 155.741 24.1606 155.333 24.1606 154.637C24.1606 153.989 24.1606 153.413 24.1606 152.909C24.1846 152.405 24.2326 152.069 24.3046 151.901C24.3766 151.637 24.5806 151.409 24.9166 151.217ZM17.1046 159.785C17.1286 159.857 17.1406 159.941 17.1406 160.037C17.1406 160.637 17.1526 160.973 17.1766 161.045C17.2246 161.189 17.3206 161.273 17.4646 161.297C17.6566 161.393 18.7126 161.441 20.6326 161.441C22.5046 161.441 23.5366 161.381 23.7286 161.261C23.8726 161.165 23.9686 160.697 24.0166 159.857C24.0406 159.353 24.0406 159.017 24.0166 158.849C23.9926 158.705 23.9326 158.621 23.8366 158.597C23.6206 158.501 22.5406 158.441 20.5966 158.417C20.4046 158.417 20.2486 158.405 20.1286 158.381C18.6886 158.357 17.8126 158.405 17.5006 158.525C17.2366 158.645 17.1046 159.065 17.1046 159.785ZM18.6886 175.229C18.6646 174.917 18.6526 174.533 18.6526 174.077C18.6766 173.621 18.6886 173.141 18.6886 172.637C18.7126 172.397 18.7246 171.977 18.7246 171.377C18.7486 169.169 18.8086 167.765 18.9046 167.165C18.9526 166.637 19.1326 166.325 19.4446 166.229C19.6126 166.157 19.8526 166.145 20.1646 166.193C20.4286 166.217 20.6446 166.325 20.8126 166.517C21.0046 166.709 21.1486 166.985 21.2446 167.345C21.3406 167.681 21.3646 168.017 21.3166 168.353V168.569C21.3166 168.809 21.3646 168.989 21.4606 169.109C21.5326 169.205 21.7126 169.277 22.0006 169.325C22.2406 169.349 22.9486 169.385 24.1246 169.433H25.5646C27.0766 169.433 28.2046 169.421 28.9486 169.397L31.2526 169.289L31.4326 168.929C31.5046 168.737 31.5646 168.305 31.6126 167.633C31.6606 167.009 31.7566 166.601 31.9006 166.409C32.0206 166.217 32.2846 166.121 32.6926 166.121C33.1246 166.121 33.4846 166.229 33.7726 166.445L34.2046 166.805L34.1686 171.233C34.1206 173.777 34.0726 175.253 34.0246 175.661C33.9046 176.165 33.6406 176.501 33.2326 176.669C32.9686 176.789 32.6326 176.861 32.2246 176.885C31.9126 176.909 30.8926 176.921 29.1646 176.921C27.1966 176.897 25.0726 176.885 22.7926 176.885C20.8966 176.885 19.8166 176.849 19.5526 176.777C19.2646 176.681 19.0366 176.489 18.8686 176.201C18.7486 176.009 18.6886 175.685 18.6886 175.229ZM21.2446 173.213C21.2446 173.645 21.2686 173.933 21.3166 174.077C21.3646 174.221 21.4486 174.305 21.5686 174.329C21.6646 174.353 22.5286 174.365 24.1606 174.365H26.5006C29.5726 174.341 31.1566 174.257 31.2526 174.113C31.3486 174.017 31.3966 173.681 31.3966 173.105C31.3966 172.553 31.3486 172.217 31.2526 172.097C31.1806 171.977 29.5486 171.905 26.3566 171.881H24.2326C22.4326 171.881 21.4966 171.917 21.4246 171.989C21.3046 172.109 21.2446 172.517 21.2446 173.213ZM31.3246 154.349L31.4326 152.009L31.8286 151.541C32.0206 151.325 32.1646 151.181 32.2606 151.109C32.4046 151.061 32.5726 151.037 32.7646 151.037C33.2926 151.037 33.6046 151.181 33.7006 151.469C33.7726 151.709 33.8326 152.621 33.8806 154.205C33.9046 155.957 33.9766 156.905 34.0966 157.049C34.1686 157.121 34.4566 157.157 34.9606 157.157L36.2566 157.121C36.7126 157.121 37.1326 157.157 37.5166 157.229C38.1646 157.349 38.5726 157.493 38.7406 157.661C38.9566 157.877 39.0646 158.153 39.0646 158.489C39.0646 158.969 38.8966 159.317 38.5606 159.533C38.3926 159.629 37.9846 159.677 37.3366 159.677C36.9046 159.677 36.5446 159.665 36.2566 159.641H35.8966C35.7286 159.617 35.4886 159.605 35.1766 159.605C34.5766 159.605 34.2046 159.677 34.0606 159.821C33.8686 160.061 33.7726 160.781 33.7726 161.981V162.377C33.7726 163.649 33.7366 164.465 33.6646 164.825C33.5686 165.185 33.3286 165.449 32.9446 165.617C32.7766 165.713 32.6446 165.761 32.5486 165.761C32.4526 165.761 32.3206 165.713 32.1526 165.617C31.9366 165.497 31.7086 165.293 31.4686 165.005C31.3246 164.813 31.2526 164.513 31.2526 164.105C31.2286 163.841 31.2166 162.701 31.2166 160.685L31.3246 154.349ZM60.0729 151.217C60.2409 151.145 60.3609 151.097 60.4329 151.073C60.5289 151.049 60.6009 151.037 60.6489 151.037C60.8409 151.037 61.0569 151.121 61.2969 151.289C61.5609 151.481 61.7049 151.637 61.7289 151.757C61.8249 151.973 61.8849 153.041 61.9089 154.961C61.9329 155.609 61.9449 156.581 61.9449 157.877C61.9449 159.125 61.9329 160.061 61.9089 160.685L61.8729 162.917L61.4409 163.421L60.9729 163.889L55.9329 163.853C53.6529 163.853 52.1769 163.829 51.5049 163.781C50.9529 163.733 50.5689 163.649 50.3529 163.529C50.0409 163.337 49.8249 163.085 49.7049 162.773C49.6809 162.701 49.6689 162.317 49.6689 161.621C49.6689 160.301 49.6929 159.101 49.7409 158.021C49.8609 154.973 49.9569 153.281 50.0289 152.945C50.1249 152.129 50.5209 151.721 51.2169 151.721C51.8409 151.721 52.2129 152.033 52.3329 152.657C52.4049 153.137 52.4529 153.725 52.4769 154.421C52.5249 155.309 52.5969 155.813 52.6929 155.933C52.7649 156.053 53.5329 156.113 54.9969 156.113C57.7089 156.113 59.1129 156.029 59.2089 155.861C59.2809 155.741 59.3169 155.333 59.3169 154.637C59.3169 153.989 59.3169 153.413 59.3169 152.909C59.3409 152.405 59.3889 152.069 59.4609 151.901C59.5329 151.637 59.7369 151.409 60.0729 151.217ZM52.2609 159.785C52.2849 159.857 52.2969 159.941 52.2969 160.037C52.2969 160.637 52.3089 160.973 52.3329 161.045C52.3809 161.189 52.4769 161.273 52.6209 161.297C52.8129 161.393 53.8689 161.441 55.7889 161.441C57.6609 161.441 58.6929 161.381 58.8849 161.261C59.0289 161.165 59.1249 160.697 59.1729 159.857C59.1969 159.353 59.1969 159.017 59.1729 158.849C59.1489 158.705 59.0889 158.621 58.9929 158.597C58.7769 158.501 57.6969 158.441 55.7529 158.417C55.5609 158.417 55.4049 158.405 55.2849 158.381C53.8449 158.357 52.9689 158.405 52.6569 158.525C52.3929 158.645 52.2609 159.065 52.2609 159.785ZM53.8449 175.229C53.8209 174.917 53.8089 174.533 53.8089 174.077C53.8329 173.621 53.8449 173.141 53.8449 172.637C53.8689 172.397 53.8809 171.977 53.8809 171.377C53.9049 169.169 53.9649 167.765 54.0609 167.165C54.1089 166.637 54.2889 166.325 54.6009 166.229C54.7689 166.157 55.0089 166.145 55.3209 166.193C55.5849 166.217 55.8009 166.325 55.9689 166.517C56.1609 166.709 56.3049 166.985 56.4009 167.345C56.4969 167.681 56.5209 168.017 56.4729 168.353V168.569C56.4729 168.809 56.5209 168.989 56.6169 169.109C56.6889 169.205 56.8689 169.277 57.1569 169.325C57.3969 169.349 58.1049 169.385 59.2809 169.433H60.7209C62.2329 169.433 63.3609 169.421 64.1049 169.397L66.4089 169.289L66.5889 168.929C66.6609 168.737 66.7209 168.305 66.7689 167.633C66.8169 167.009 66.9129 166.601 67.0569 166.409C67.1769 166.217 67.4409 166.121 67.8489 166.121C68.2809 166.121 68.6409 166.229 68.9289 166.445L69.3609 166.805L69.3249 171.233C69.2769 173.777 69.2289 175.253 69.1809 175.661C69.0609 176.165 68.7969 176.501 68.3889 176.669C68.1249 176.789 67.7889 176.861 67.3809 176.885C67.0689 176.909 66.0489 176.921 64.3209 176.921C62.3529 176.897 60.2289 176.885 57.9489 176.885C56.0529 176.885 54.9729 176.849 54.7089 176.777C54.4209 176.681 54.1929 176.489 54.0249 176.201C53.9049 176.009 53.8449 175.685 53.8449 175.229ZM56.4009 173.213C56.4009 173.645 56.4249 173.933 56.4729 174.077C56.5209 174.221 56.6049 174.305 56.7249 174.329C56.8209 174.353 57.6849 174.365 59.3169 174.365H61.6569C64.7289 174.341 66.3129 174.257 66.4089 174.113C66.5049 174.017 66.5529 173.681 66.5529 173.105C66.5529 172.553 66.5049 172.217 66.4089 172.097C66.3369 171.977 64.7049 171.905 61.5129 171.881H59.3889C57.5889 171.881 56.6529 171.917 56.5809 171.989C56.4609 172.109 56.4009 172.517 56.4009 173.213ZM66.4809 154.349L66.5889 152.009L66.9849 151.541C67.1769 151.325 67.3209 151.181 67.4169 151.109C67.5609 151.061 67.7289 151.037 67.9209 151.037C68.4489 151.037 68.7609 151.181 68.8569 151.469C68.9289 151.709 68.9889 152.621 69.0369 154.205C69.0609 155.957 69.1329 156.905 69.2529 157.049C69.3249 157.121 69.6129 157.157 70.1169 157.157L71.4129 157.121C71.8689 157.121 72.2889 157.157 72.6729 157.229C73.3209 157.349 73.7289 157.493 73.8969 157.661C74.1129 157.877 74.2209 158.153 74.2209 158.489C74.2209 158.969 74.0529 159.317 73.7169 159.533C73.5489 159.629 73.1409 159.677 72.4929 159.677C72.0609 159.677 71.7009 159.665 71.4129 159.641H71.0529C70.8849 159.617 70.6449 159.605 70.3329 159.605C69.7329 159.605 69.3609 159.677 69.2169 159.821C69.0249 160.061 68.9289 160.781 68.9289 161.981V162.377C68.9289 163.649 68.8929 164.465 68.8209 164.825C68.7249 165.185 68.4849 165.449 68.1009 165.617C67.9329 165.713 67.8009 165.761 67.7049 165.761C67.6089 165.761 67.4769 165.713 67.3089 165.617C67.0929 165.497 66.8649 165.293 66.6249 165.005C66.4809 164.813 66.4089 164.513 66.4089 164.105C66.3849 163.841 66.3729 162.701 66.3729 160.685L66.4809 154.349ZM95.2291 151.217C95.3971 151.145 95.5171 151.097 95.5891 151.073C95.6851 151.049 95.7571 151.037 95.8051 151.037C95.9971 151.037 96.2131 151.121 96.4531 151.289C96.7171 151.481 96.8611 151.637 96.8851 151.757C96.9811 151.973 97.0411 153.041 97.0651 154.961C97.0891 155.609 97.1011 156.581 97.1011 157.877C97.1011 159.125 97.0891 160.061 97.0651 160.685L97.0291 162.917L96.5971 163.421L96.1291 163.889L91.0891 163.853C88.8091 163.853 87.3331 163.829 86.6611 163.781C86.1091 163.733 85.7251 163.649 85.5091 163.529C85.1971 163.337 84.9811 163.085 84.8611 162.773C84.8371 162.701 84.8251 162.317 84.8251 161.621C84.8251 160.301 84.8491 159.101 84.8971 158.021C85.0171 154.973 85.1131 153.281 85.1851 152.945C85.2811 152.129 85.6771 151.721 86.3731 151.721C86.9971 151.721 87.3691 152.033 87.4891 152.657C87.5611 153.137 87.6091 153.725 87.6331 154.421C87.6811 155.309 87.7531 155.813 87.8491 155.933C87.9211 156.053 88.6891 156.113 90.1531 156.113C92.8651 156.113 94.2691 156.029 94.3651 155.861C94.4371 155.741 94.4731 155.333 94.4731 154.637C94.4731 153.989 94.4731 153.413 94.4731 152.909C94.4971 152.405 94.5451 152.069 94.6171 151.901C94.6891 151.637 94.8931 151.409 95.2291 151.217ZM87.4171 159.785C87.4411 159.857 87.4531 159.941 87.4531 160.037C87.4531 160.637 87.4651 160.973 87.4891 161.045C87.5371 161.189 87.6331 161.273 87.7771 161.297C87.9691 161.393 89.0251 161.441 90.9451 161.441C92.8171 161.441 93.8491 161.381 94.0411 161.261C94.1851 161.165 94.2811 160.697 94.3291 159.857C94.3531 159.353 94.3531 159.017 94.3291 158.849C94.3051 158.705 94.2451 158.621 94.1491 158.597C93.9331 158.501 92.8531 158.441 90.9091 158.417C90.7171 158.417 90.5611 158.405 90.4411 158.381C89.0011 158.357 88.1251 158.405 87.8131 158.525C87.5491 158.645 87.4171 159.065 87.4171 159.785ZM89.0011 175.229C88.9771 174.917 88.9651 174.533 88.9651 174.077C88.9891 173.621 89.0011 173.141 89.0011 172.637C89.0251 172.397 89.0371 171.977 89.0371 171.377C89.0611 169.169 89.1211 167.765 89.2171 167.165C89.2651 166.637 89.4451 166.325 89.7571 166.229C89.9251 166.157 90.1651 166.145 90.4771 166.193C90.7411 166.217 90.9571 166.325 91.1251 166.517C91.3171 166.709 91.4611 166.985 91.5571 167.345C91.6531 167.681 91.6771 168.017 91.6291 168.353V168.569C91.6291 168.809 91.6771 168.989 91.7731 169.109C91.8451 169.205 92.0251 169.277 92.3131 169.325C92.5531 169.349 93.2611 169.385 94.4371 169.433H95.8771C97.3891 169.433 98.5171 169.421 99.2611 169.397L101.565 169.289L101.745 168.929C101.817 168.737 101.877 168.305 101.925 167.633C101.973 167.009 102.069 166.601 102.213 166.409C102.333 166.217 102.597 166.121 103.005 166.121C103.437 166.121 103.797 166.229 104.085 166.445L104.517 166.805L104.481 171.233C104.433 173.777 104.385 175.253 104.337 175.661C104.217 176.165 103.953 176.501 103.545 176.669C103.281 176.789 102.945 176.861 102.537 176.885C102.225 176.909 101.205 176.921 99.4771 176.921C97.5091 176.897 95.3851 176.885 93.1051 176.885C91.2091 176.885 90.1291 176.849 89.8651 176.777C89.5771 176.681 89.3491 176.489 89.1811 176.201C89.0611 176.009 89.0011 175.685 89.0011 175.229ZM91.5571 173.213C91.5571 173.645 91.5811 173.933 91.6291 174.077C91.6771 174.221 91.7611 174.305 91.8811 174.329C91.9771 174.353 92.8411 174.365 94.4731 174.365H96.8131C99.8851 174.341 101.469 174.257 101.565 174.113C101.661 174.017 101.709 173.681 101.709 173.105C101.709 172.553 101.661 172.217 101.565 172.097C101.493 171.977 99.8611 171.905 96.6691 171.881H94.5451C92.7451 171.881 91.8091 171.917 91.7371 171.989C91.6171 172.109 91.5571 172.517 91.5571 173.213ZM101.637 154.349L101.745 152.009L102.141 151.541C102.333 151.325 102.477 151.181 102.573 151.109C102.717 151.061 102.885 151.037 103.077 151.037C103.605 151.037 103.917 151.181 104.013 151.469C104.085 151.709 104.145 152.621 104.193 154.205C104.217 155.957 104.289 156.905 104.409 157.049C104.481 157.121 104.769 157.157 105.273 157.157L106.569 157.121C107.025 157.121 107.445 157.157 107.829 157.229C108.477 157.349 108.885 157.493 109.053 157.661C109.269 157.877 109.377 158.153 109.377 158.489C109.377 158.969 109.209 159.317 108.873 159.533C108.705 159.629 108.297 159.677 107.649 159.677C107.217 159.677 106.857 159.665 106.569 159.641H106.209C106.041 159.617 105.801 159.605 105.489 159.605C104.889 159.605 104.517 159.677 104.373 159.821C104.181 160.061 104.085 160.781 104.085 161.981V162.377C104.085 163.649 104.049 164.465 103.977 164.825C103.881 165.185 103.641 165.449 103.257 165.617C103.089 165.713 102.957 165.761 102.861 165.761C102.765 165.761 102.633 165.713 102.465 165.617C102.249 165.497 102.021 165.293 101.781 165.005C101.637 164.813 101.565 164.513 101.565 164.105C101.541 163.841 101.529 162.701 101.529 160.685L101.637 154.349Z" fill="white"/>
</svg>
