<svg width="21" height="21" viewBox="0 0 21 21" fill="none" xmlns="http://www.w3.org/2000/svg">
<path fill-rule="evenodd" clip-rule="evenodd" d="M1.66669 16.4386V10.5483C1.66669 9.95971 1.66669 9.66529 1.73978 9.39143C1.80455 9.14874 1.9117 8.91907 2.0556 8.71153C2.21798 8.47733 2.44366 8.28313 2.89606 7.89557L8.29785 3.26803C9.13652 2.54956 9.55588 2.19031 10.0282 2.05357C10.4446 1.93299 10.8885 1.93299 11.305 2.05357C11.7776 2.19041 12.1976 2.55001 13.0375 3.26955L18.4375 7.89557C18.8899 8.28312 19.1157 8.47733 19.2781 8.71153C19.422 8.91907 19.5283 9.14874 19.5931 9.39143C19.6662 9.66529 19.6667 9.95972 19.6667 10.5483V16.4425C19.6667 17.6738 19.6667 18.2901 19.4217 18.7609C19.206 19.1754 18.8609 19.5121 18.4375 19.7233C17.9567 19.9631 17.3278 19.9631 16.0702 19.9631H13.6667V15.9631C13.6667 14.3063 12.3235 12.9631 10.6667 12.9631C9.00983 12.9631 7.66669 14.3063 7.66669 15.9631V19.9631H5.26321C4.00556 19.9631 3.37579 19.9631 2.89496 19.7233C2.47159 19.5121 2.12764 19.1754 1.91192 18.7609C1.66669 18.2897 1.66669 17.6724 1.66669 16.4386Z" fill="#FFAD0A"/>
<path d="M1.73978 9.39143L2.70596 9.6493L2.70596 9.6493L1.73978 9.39143ZM2.0556 8.71153L2.87739 9.28132L2.87739 9.28132L2.0556 8.71153ZM2.89606 7.89557L2.24547 7.13614H2.24547L2.89606 7.89557ZM8.29785 3.26803L7.64726 2.50859L7.64726 2.50859L8.29785 3.26803ZM10.0282 2.05357L10.3063 3.01412L10.0282 2.05357ZM11.305 2.05357L11.5831 1.09302L11.5831 1.09302L11.305 2.05357ZM13.0375 3.26955L12.387 4.02899L13.0375 3.26955ZM18.4375 7.89557L19.0881 7.13614L19.0881 7.13614L18.4375 7.89557ZM19.2781 8.71153L20.0999 8.14173V8.14173L19.2781 8.71153ZM19.5931 9.39143L20.5593 9.13356V9.13356L19.5931 9.39143ZM19.4217 18.7609L20.3088 19.2225H20.3088L19.4217 18.7609ZM18.4375 19.7233L18.8839 20.6181L18.8839 20.6181L18.4375 19.7233ZM13.6667 19.9631H12.6667C12.6667 20.5154 13.1144 20.9631 13.6667 20.9631V19.9631ZM7.66669 19.9631V20.9631C8.21897 20.9631 8.66669 20.5154 8.66669 19.9631H7.66669ZM2.89496 19.7233L2.44857 20.6181L2.44857 20.6181L2.89496 19.7233ZM1.91192 18.7609L1.02486 19.2225H1.02486L1.91192 18.7609ZM0.666687 10.5483V16.4386H2.66669V10.5483H0.666687ZM0.7736 9.13356C0.658789 9.56373 0.666687 10.0131 0.666687 10.5483H2.66669C2.66669 9.90633 2.67458 9.76685 2.70596 9.6493L0.7736 9.13356ZM1.23381 8.14174C1.02549 8.44219 0.868746 8.77707 0.7736 9.13356L2.70596 9.6493C2.74036 9.5204 2.79791 9.39595 2.87739 9.28132L1.23381 8.14174ZM2.24547 7.13614C1.83178 7.49053 1.48652 7.77726 1.23381 8.14174L2.87739 9.28132C2.94944 9.1774 3.05553 9.07572 3.54664 8.655L2.24547 7.13614ZM7.64726 2.50859L2.24547 7.13614L3.54664 8.655L8.94843 4.02746L7.64726 2.50859ZM9.75005 1.09302C9.3574 1.20671 9.02681 1.40361 8.7097 1.63576C8.40296 1.86031 8.05504 2.15926 7.64726 2.50859L8.94843 4.02746C9.37933 3.65832 9.66041 3.41842 9.8911 3.24954C10.1114 3.08826 10.2266 3.03717 10.3063 3.01412L9.75005 1.09302ZM11.5831 1.09302C10.985 0.91984 10.3482 0.91984 9.75005 1.09302L10.3063 3.01412C10.5411 2.94614 10.7921 2.94614 11.0269 3.01412L11.5831 1.09302ZM13.6881 2.51012C13.2797 2.16021 12.9313 1.86091 12.6242 1.63612C12.3067 1.40375 11.9759 1.20675 11.5831 1.09302L11.0269 3.01412C11.1067 3.03723 11.2222 3.08845 11.4429 3.24998C11.6739 3.41908 11.9555 3.65935 12.387 4.02899L13.6881 2.51012ZM19.0881 7.13614L13.6881 2.51012L12.387 4.02899L17.787 8.655L19.0881 7.13614ZM20.0999 8.14173C19.8471 7.77723 19.5017 7.49042 19.0881 7.13614L17.787 8.655C18.2782 9.07583 18.3843 9.17744 18.4563 9.28132L20.0999 8.14173ZM20.5593 9.13356C20.4646 8.779 20.3093 8.44384 20.0999 8.14173L18.4563 9.28132C18.5346 9.39429 18.592 9.51848 18.6269 9.6493L20.5593 9.13356ZM20.6667 10.5483C20.6667 10.0116 20.674 9.56337 20.5593 9.13356L18.6269 9.6493C18.6584 9.76721 18.6667 9.90787 18.6667 10.5483H20.6667ZM20.6667 16.4425V10.5483H18.6667V16.4425H20.6667ZM20.3088 19.2225C20.5178 18.8209 20.5967 18.4005 20.6326 17.9701C20.6675 17.552 20.6667 17.0413 20.6667 16.4425H18.6667C18.6667 17.075 18.6659 17.4881 18.6395 17.8037C18.6142 18.107 18.5706 18.2302 18.5346 18.2992L20.3088 19.2225ZM18.8839 20.6181C19.4925 20.3145 19.9937 19.828 20.3088 19.2225L18.5346 18.2992C18.4183 18.5228 18.2292 18.7096 17.9911 18.8284L18.8839 20.6181ZM16.0702 20.9631C16.6828 20.9631 17.2013 20.9639 17.6249 20.93C18.0598 20.8952 18.481 20.8191 18.8839 20.6181L17.9911 18.8284C17.9132 18.8673 17.7796 18.9112 17.4653 18.9363C17.14 18.9624 16.7152 18.9631 16.0702 18.9631V20.9631ZM13.6667 20.9631H16.0702V18.9631H13.6667V20.9631ZM12.6667 15.9631V19.9631H14.6667V15.9631H12.6667ZM10.6667 13.9631C11.7713 13.9631 12.6667 14.8586 12.6667 15.9631H14.6667C14.6667 13.754 12.8758 11.9631 10.6667 11.9631V13.9631ZM8.66669 15.9631C8.66669 14.8586 9.56212 13.9631 10.6667 13.9631V11.9631C8.45755 11.9631 6.66669 13.754 6.66669 15.9631H8.66669ZM8.66669 19.9631V15.9631H6.66669V19.9631H8.66669ZM5.26321 20.9631H7.66669V18.9631H5.26321V20.9631ZM2.44857 20.6181C2.85158 20.8192 3.27312 20.8952 3.70802 20.93C4.13191 20.9639 4.65053 20.9631 5.26321 20.9631V18.9631C4.61823 18.9631 4.19315 18.9624 3.86753 18.9363C3.55292 18.9112 3.41917 18.8673 3.34135 18.8284L2.44857 20.6181ZM1.02486 19.2225C1.33939 19.8269 1.83887 20.314 2.44857 20.6181L3.34135 18.8284C3.10432 18.7102 2.91589 18.5239 2.79898 18.2992L1.02486 19.2225ZM0.666687 16.4386C0.666687 17.0387 0.665877 17.5502 0.700803 17.9688C0.736752 18.3998 0.815656 18.8206 1.02486 19.2225L2.79898 18.2992C2.76295 18.23 2.71924 18.1066 2.69388 17.8026C2.6675 17.4863 2.66669 17.0723 2.66669 16.4386H0.666687Z" fill="#FFAD0A"/>
</svg>
