<svg width="19" height="22" viewBox="0 0 19 22" fill="none" xmlns="http://www.w3.org/2000/svg">
<path d="M9.66675 10.9631C11.0591 10.9631 12.3945 10.41 13.3791 9.42545C14.3636 8.44088 14.9167 7.10552 14.9167 5.71313C14.9167 4.32075 14.3636 2.98539 13.3791 2.00082C12.3945 1.01626 11.0591 0.463135 9.66675 0.463135C8.27436 0.463135 6.939 1.01626 5.95444 2.00082C4.96987 2.98539 4.41675 4.32075 4.41675 5.71313C4.41675 7.10552 4.96987 8.44088 5.95444 9.42545C6.939 10.41 8.27436 10.9631 9.66675 10.9631ZM3.29175 12.4631C2.59555 12.4631 1.92788 12.7397 1.43559 13.232C0.94331 13.7243 0.666748 14.3919 0.666748 15.0881V15.4631C0.666748 17.2579 1.809 18.7759 3.4305 19.8079C5.061 20.8459 7.26825 21.4631 9.66675 21.4631C12.0652 21.4631 14.2717 20.8459 15.903 19.8079C17.5245 18.7759 18.6667 17.2579 18.6667 15.4631V15.0881C18.6667 14.3919 18.3902 13.7243 17.8979 13.232C17.4056 12.7397 16.7379 12.4631 16.0417 12.4631H3.29175Z" fill="#D1D2D1"/>
</svg>
