<svg width="19" height="20" viewBox="0 0 19 20" fill="none" xmlns="http://www.w3.org/2000/svg">
<path d="M5.42176 11.3431V18.1731C5.42176 18.5816 5.25951 18.9733 4.97071 19.2621C4.6819 19.5509 4.29019 19.7131 3.88176 19.7131H2.07176C1.86869 19.7145 1.66735 19.6756 1.47936 19.5988C1.29136 19.522 1.12041 19.4088 0.976347 19.2656C0.832283 19.1225 0.717953 18.9523 0.639936 18.7648C0.561919 18.5773 0.521757 18.3762 0.521761 18.1731V11.3431C0.520433 11.1392 0.559618 10.9371 0.637042 10.7484C0.714466 10.5598 0.828588 10.3884 0.972784 10.2442C1.11698 10.1 1.28838 9.98584 1.47703 9.90842C1.66569 9.83099 1.86784 9.79181 2.07176 9.79313H3.88176C4.08484 9.79313 4.28592 9.83329 4.47341 9.91131C4.66091 9.98933 4.83112 10.1037 4.97426 10.2477C5.11739 10.3918 5.23062 10.5627 5.30742 10.7507C5.38422 10.9387 5.42308 11.1401 5.42176 11.3431ZM12.1218 1.76313V18.1731C12.1218 18.3762 12.0816 18.5773 12.0036 18.7648C11.9256 18.9523 11.8112 19.1225 11.6672 19.2656C11.5231 19.4088 11.3522 19.522 11.1642 19.5988C10.9762 19.6756 10.7748 19.7145 10.5718 19.7131H8.76176C8.3524 19.7131 7.95966 19.5512 7.66927 19.2627C7.37887 18.9742 7.2144 18.5825 7.21176 18.1731V1.76313C7.21438 1.35286 7.37853 0.960131 7.66864 0.670016C7.95876 0.379901 8.35149 0.215756 8.76176 0.213135H10.5718C10.9828 0.213135 11.3771 0.376438 11.6678 0.667119C11.9585 0.957801 12.1218 1.35205 12.1218 1.76313ZM18.8118 6.94313V18.1731C18.8118 18.5816 18.6495 18.9733 18.3607 19.2621C18.0719 19.5509 17.6802 19.7131 17.2718 19.7131H15.4618C15.2587 19.7145 15.0574 19.6756 14.8694 19.5988C14.6814 19.522 14.5104 19.4088 14.3663 19.2656C14.2223 19.1225 14.108 18.9523 14.0299 18.7648C13.9519 18.5773 13.9118 18.3762 13.9118 18.1731V6.94313C13.9118 6.73959 13.9519 6.53803 14.0297 6.34998C14.1076 6.16192 14.2218 5.99105 14.3657 5.84712C14.5097 5.70319 14.6805 5.58902 14.8686 5.51112C15.0567 5.43323 15.2582 5.39313 15.4618 5.39313H17.3118C17.7141 5.40612 18.0956 5.57514 18.3756 5.86442C18.6556 6.15371 18.812 6.54057 18.8118 6.94313Z" fill="#D1D2D1"/>
</svg>
